<svg width="101" height="156" viewBox="0 0 101 156" fill="none" xmlns="http://www.w3.org/2000/svg">
<g filter="url(#filter0_d_4_3)">
<circle cx="50.5" cy="46.5" r="46.5" fill="#519DD9" fill-opacity="0.7" shape-rendering="crispEdges"/>
<circle cx="50.5" cy="46.5" r="46" stroke="black" stroke-opacity="0.5" shape-rendering="crispEdges"/>
</g>
<g filter="url(#filter1_d_4_3)">
<path d="M30.7071 9.29289C30.3166 8.90237 29.6834 8.90237 29.2929 9.29289L22.9289 15.6569C22.5384 16.0474 22.5384 16.6805 22.9289 17.0711C23.3195 17.4616 23.9526 17.4616 24.3431 17.0711L30 11.4142L35.6569 17.0711C36.0474 17.4616 36.6805 17.4616 37.0711 17.0711C37.4616 16.6805 37.4616 16.0474 37.0711 15.6569L30.7071 9.29289ZM31 44L31 10L29 10L29 44L31 44Z" fill="black"/>
</g>
<g filter="url(#filter2_d_4_3)">
<path d="M47.7285 64.0488C47.7285 64.3743 47.6471 64.6348 47.4844 64.8301C47.3379 65.0254 47.0775 65.123 46.7031 65.123C46.5078 65.123 46.3044 65.0986 46.0928 65.0498C45.8812 65.0173 45.6777 64.9603 45.4824 64.8789C45.0755 64.765 44.75 64.6592 44.5059 64.5615C44.278 64.4639 44.099 64.3337 43.9688 64.1709C43.8548 64.0244 43.7816 63.8291 43.749 63.585C43.7165 63.3408 43.6921 63.0072 43.6758 62.584C43.5456 59.2474 43.3991 55.9434 43.2363 52.6719C43.0898 49.3841 42.8457 46.0801 42.5039 42.7598C42.276 43.8828 42.0563 45.0059 41.8447 46.1289C41.6331 47.252 41.4134 48.3913 41.1855 49.5469C40.9577 50.7513 40.738 51.9801 40.5264 53.2334C40.3311 54.4867 40.0137 55.6992 39.5742 56.8711C39.3952 57.3431 39.1755 57.7174 38.915 57.9941C38.6546 58.2546 38.2559 58.3848 37.7188 58.3848C37.3281 58.3848 37.0107 58.3197 36.7666 58.1895C36.5225 58.043 36.2865 57.8314 36.0586 57.5547C35.847 57.3268 35.6191 56.8874 35.375 56.2363C35.1309 55.5853 34.8704 54.8285 34.5938 53.9658C34.3333 53.0869 34.0729 52.151 33.8125 51.1582C33.5521 50.1654 33.3079 49.2132 33.0801 48.3018C32.8522 47.374 32.6488 46.5277 32.4697 45.7627C32.2907 44.9977 32.1523 44.4199 32.0547 44.0293V47.3496C32.0547 49.5143 32.0954 51.6709 32.1768 53.8193C32.2581 55.9678 32.3965 58.1081 32.5918 60.2402C32.6406 60.7122 32.7057 61.1842 32.7871 61.6562C32.8848 62.1283 32.9336 62.6003 32.9336 63.0723C32.9336 63.4954 32.7871 63.7721 32.4941 63.9023C32.2174 64.0326 31.9082 64.0977 31.5664 64.0977C30.6387 64.0977 29.9225 63.9023 29.418 63.5117C28.9297 63.1048 28.6855 62.4212 28.6855 61.4609C28.6855 59.4915 28.6367 57.5384 28.5391 55.6016C28.4414 53.6647 28.3926 51.7116 28.3926 49.7422C28.3926 49.4655 28.3926 48.9854 28.3926 48.3018C28.4089 47.6182 28.4251 46.8125 28.4414 45.8848C28.4577 44.9408 28.474 43.9235 28.4902 42.833C28.5228 41.7262 28.5553 40.6113 28.5879 39.4883C28.6204 38.3652 28.653 37.2747 28.6855 36.2168C28.7181 35.1426 28.7507 34.1823 28.7832 33.3359C28.8158 32.4896 28.8483 31.7897 28.8809 31.2363C28.9297 30.6667 28.9785 30.3249 29.0273 30.2109C29.1087 29.9831 29.1982 29.8366 29.2959 29.7715C29.4098 29.7064 29.5807 29.6738 29.8086 29.6738C30.4271 29.6738 30.9398 29.8122 31.3467 30.0889C31.7699 30.3493 32.0547 30.7969 32.2012 31.4316C32.429 31.7734 32.6895 32.4001 32.9824 33.3115C33.2754 34.2067 33.5846 35.2565 33.9102 36.4609C34.2357 37.6654 34.5612 38.9674 34.8867 40.3672C35.2285 41.7507 35.5459 43.0853 35.8389 44.3711C36.1481 45.6569 36.4248 46.8369 36.6689 47.9111C36.9294 48.9854 37.1328 49.8073 37.2793 50.377C37.7513 47.5775 38.2314 44.7943 38.7197 42.0273C39.208 39.2604 39.6719 36.4772 40.1113 33.6777C40.1927 33.2057 40.2741 32.7419 40.3555 32.2861C40.4531 31.8304 40.502 31.3665 40.502 30.8945C40.502 30.6016 40.4613 30.333 40.3799 30.0889C40.2985 29.8285 40.2578 29.5599 40.2578 29.2832C40.2578 28.9414 40.3636 28.738 40.5752 28.6729C40.8031 28.5915 41.0553 28.5508 41.332 28.5508C41.5924 28.5508 41.9017 28.5915 42.2598 28.6729C42.6178 28.7542 42.9596 28.8763 43.2852 29.0391C43.627 29.2018 43.9118 29.4053 44.1396 29.6494C44.3838 29.8936 44.5059 30.1784 44.5059 30.5039C44.5059 31.0736 44.457 31.6758 44.3594 32.3105C44.9453 35.0612 45.4336 37.82 45.8242 40.5869C46.2148 43.3376 46.5078 46.1126 46.7031 48.9121C46.8984 51.321 47.0531 53.7135 47.167 56.0898C47.2972 58.4661 47.4518 60.8424 47.6309 63.2188C47.6634 63.3652 47.6878 63.5036 47.7041 63.6338C47.7204 63.764 47.7285 63.9023 47.7285 64.0488Z" fill="black"/>
</g>
<g filter="url(#filter3_d_4_3)">
<path d="M74.939 62.4277C74.939 64.2344 74.646 65.9434 74.0601 67.5547C73.4741 69.166 72.6318 70.582 71.5332 71.8027C70.459 72.999 69.1528 73.9512 67.6147 74.6592C66.0767 75.3916 64.3677 75.7578 62.4878 75.7578C60.8276 75.7578 59.2896 75.4893 57.8735 74.9521C56.4819 74.4395 55.2734 73.707 54.248 72.7549C53.2227 71.8027 52.417 70.6431 51.8311 69.2759C51.2695 67.9087 50.9888 66.3828 50.9888 64.6982C50.9888 64.3564 51.001 63.9292 51.0254 63.4165C51.0498 62.9038 51.123 62.4155 51.2451 61.9517C51.3916 61.4634 51.5869 61.0605 51.8311 60.7432C52.0996 60.4014 52.478 60.2305 52.9663 60.2305C53.3569 60.2305 53.7842 60.3159 54.248 60.4868C54.7363 60.6333 55.188 60.8408 55.603 61.1094C56.0181 61.3779 56.3599 61.7075 56.6284 62.0981C56.9214 62.4644 57.0679 62.8672 57.0679 63.3066V65.4307C57.0679 67.1152 57.5195 68.4946 58.4229 69.5688C59.3506 70.6187 60.6812 71.1436 62.4146 71.1436C63.6353 71.1436 64.6851 70.8628 65.564 70.3013C66.4429 69.7397 67.1509 69.0195 67.688 68.1406C68.2495 67.2617 68.6523 66.2852 68.8965 65.2109C69.165 64.1123 69.2993 63.0381 69.2993 61.9883C69.2993 59.9375 68.8721 57.9478 68.0176 56.019C67.1875 54.0903 66.1377 52.2104 64.8682 50.3794C63.5986 48.5239 62.2192 46.7051 60.73 44.9229C59.2407 43.1406 57.8613 41.3706 56.5918 39.6128C55.3223 37.855 54.2603 36.0972 53.4058 34.3394C52.5757 32.5815 52.1606 30.7871 52.1606 28.9561C52.1606 27.4668 52.4536 26.1851 53.0396 25.1108C53.6499 24.0122 54.4434 23.1211 55.4199 22.4375C56.4209 21.7295 57.5439 21.2168 58.7891 20.8994C60.0586 20.5576 61.3647 20.3867 62.7075 20.3867C64.3433 20.3867 65.8081 20.6187 67.1021 21.0825C68.396 21.5464 69.4946 22.2178 70.3979 23.0967C71.3013 23.9756 71.9849 25.062 72.4487 26.356C72.937 27.6255 73.1812 29.0781 73.1812 30.7139C73.1812 30.958 73.1689 31.2632 73.1445 31.6294C73.1201 31.9956 73.0591 32.3618 72.9614 32.728C72.8638 33.0698 72.7173 33.375 72.522 33.6436C72.3267 33.8877 72.0581 34.0098 71.7163 34.0098C71.228 34.0098 70.7397 33.8877 70.2515 33.6436C69.8364 33.4238 69.4946 33.2163 69.2261 33.021C68.9819 32.8013 68.7866 32.5693 68.6401 32.3252C68.4937 32.0566 68.3838 31.7637 68.3105 31.4463C68.2373 31.1289 68.1763 30.7383 68.1274 30.2744C68.0054 29.3955 67.8467 28.6021 67.6514 27.894C67.4561 27.186 67.1631 26.5879 66.7725 26.0996C66.3818 25.6113 65.8691 25.2329 65.2344 24.9644C64.5996 24.6958 63.7817 24.5615 62.7808 24.5615C62.0728 24.5615 61.3892 24.6348 60.73 24.7812C60.0952 24.9277 59.5337 25.1719 59.0454 25.5137C58.5815 25.8555 58.2031 26.3071 57.9102 26.8687C57.6416 27.4058 57.5073 28.0771 57.5073 28.8828C57.5073 30.0059 57.7515 31.1533 58.2397 32.3252C58.7524 33.4971 59.4116 34.6934 60.2173 35.9141C61.0474 37.1348 61.9751 38.3921 63.0005 39.686C64.0503 40.9556 65.1245 42.2739 66.2231 43.6411C67.3218 45.0083 68.3838 46.4243 69.4092 47.8892C70.459 49.3296 71.3867 50.8311 72.1924 52.3936C73.0225 53.9561 73.6816 55.5796 74.1699 57.2642C74.6826 58.9243 74.939 60.6455 74.939 62.4277Z" fill="black" shape-rendering="crispEdges"/>
<path d="M71.5332 71.8027L71.1616 71.4683L71.1612 71.4687L71.5332 71.8027ZM67.6147 74.6592L67.4057 74.205L67.3998 74.2077L67.6147 74.6592ZM57.8735 74.9521L58.0509 74.4846L58.0464 74.483L57.8735 74.9521ZM51.8311 69.2759L51.3685 69.4659L51.3715 69.4728L51.8311 69.2759ZM51.2451 61.9517L50.7662 61.808L50.7638 61.8162L50.7616 61.8244L51.2451 61.9517ZM51.8311 60.7432L51.4379 60.4342L51.4347 60.4383L51.8311 60.7432ZM54.248 60.4868L54.0752 60.956L54.0896 60.9613L54.1044 60.9657L54.248 60.4868ZM56.6284 62.0981L56.2164 62.3814L56.2267 62.3963L56.238 62.4105L56.6284 62.0981ZM58.4229 69.5688L58.0401 69.8907L58.0482 69.8999L58.4229 69.5688ZM67.688 68.1406L67.2666 67.8714L67.2613 67.8799L67.688 68.1406ZM68.8965 65.2109L68.4107 65.0922L68.4089 65.1001L68.8965 65.2109ZM68.0176 56.019L67.5583 56.2167L67.5604 56.2216L68.0176 56.019ZM64.8682 50.3794L64.4555 50.6617L64.4573 50.6643L64.8682 50.3794ZM53.4058 34.3394L52.9536 34.5529L52.9561 34.558L53.4058 34.3394ZM53.0396 25.1108L52.6025 24.868L52.6006 24.8714L53.0396 25.1108ZM55.4199 22.4375L55.7067 22.8471L55.7087 22.8457L55.4199 22.4375ZM58.7891 20.8994L58.9126 21.384L58.919 21.3822L58.7891 20.8994ZM72.4487 26.356L71.9779 26.5247L71.9821 26.5354L72.4487 26.356ZM72.9614 32.728L73.4423 32.8654L73.4445 32.8569L72.9614 32.728ZM72.522 33.6436L72.9124 33.9559L72.9196 33.9469L72.9263 33.9376L72.522 33.6436ZM70.2515 33.6436L70.0175 34.0856L70.0279 34.0908L70.2515 33.6436ZM69.2261 33.021L68.8916 33.3926L68.9109 33.4101L68.932 33.4254L69.2261 33.021ZM68.6401 32.3252L68.2012 32.5646L68.2061 32.5736L68.2114 32.5824L68.6401 32.3252ZM68.1274 30.2744L68.6247 30.2221L68.6238 30.2138L68.6227 30.2056L68.1274 30.2744ZM60.73 24.7812L60.6215 24.2931L60.6176 24.2941L60.73 24.7812ZM59.0454 25.5137L58.7586 25.1039L58.7488 25.1111L59.0454 25.5137ZM57.9102 26.8687L57.4668 26.6373L57.4629 26.645L57.9102 26.8687ZM58.2397 32.3252L57.7781 32.5175L57.7817 32.5256L58.2397 32.3252ZM60.2173 35.9141L59.7999 36.1895L59.8038 36.1952L60.2173 35.9141ZM63.0005 39.686L62.6085 39.9966L62.6152 40.0047L63.0005 39.686ZM69.4092 47.8892L68.9995 48.1759L69.0051 48.1837L69.4092 47.8892ZM72.1924 52.3936L71.7479 52.6227L71.7508 52.6281L72.1924 52.3936ZM74.1699 57.2642L73.6896 57.4034L73.6922 57.4117L74.1699 57.2642ZM74.439 62.4277C74.439 64.1793 74.1551 65.8301 73.5902 67.3838L74.53 67.7256C75.1369 66.0566 75.439 64.2895 75.439 62.4277H74.439ZM73.5902 67.3838C73.0252 68.9375 72.2154 70.2974 71.1616 71.4683L71.9049 72.1372C73.0483 70.8667 73.9231 69.3945 74.53 67.7256L73.5902 67.3838ZM71.1612 71.4687C70.1349 72.6116 68.8852 73.524 67.4057 74.205L67.8238 75.1134C69.4205 74.3784 70.783 73.3865 71.9052 72.1368L71.1612 71.4687ZM67.3998 74.2077C65.9355 74.905 64.3011 75.2578 62.4878 75.2578V76.2578C64.4343 76.2578 66.2178 75.8782 67.8297 75.1106L67.3998 74.2077ZM62.4878 75.2578C60.8824 75.2578 59.405 74.9983 58.0509 74.4846L57.6962 75.4196C59.1741 75.9802 60.7729 76.2578 62.4878 76.2578V75.2578ZM58.0464 74.483C56.7131 73.9917 55.5624 73.293 54.5883 72.3885L53.9078 73.1213C54.9845 74.1211 56.2508 74.8872 57.7007 75.4213L58.0464 74.483ZM54.5883 72.3885C53.6172 71.4868 52.8508 70.386 52.2906 69.0789L51.3715 69.4728C51.9832 70.9001 52.8281 72.1187 53.9078 73.1213L54.5883 72.3885ZM52.2936 69.0859C51.76 67.7868 51.4888 66.3267 51.4888 64.6982H50.4888C50.4888 66.4389 50.779 68.0305 51.3685 69.4658L52.2936 69.0859ZM51.4888 64.6982C51.4888 64.3672 51.5006 63.9486 51.5248 63.4403L50.526 63.3927C50.5013 63.9098 50.4888 64.3457 50.4888 64.6982H51.4888ZM51.5248 63.4403C51.5477 62.9601 51.6161 62.5067 51.7287 62.0789L50.7616 61.8244C50.63 62.3244 50.5519 62.8475 50.526 63.3927L51.5248 63.4403ZM51.724 62.0953C51.8576 61.6501 52.0289 61.306 52.2274 61.048L51.4347 60.4383C51.1449 60.8151 50.9256 61.2766 50.7662 61.808L51.724 62.0953ZM52.2242 61.0521C52.3854 60.8469 52.6099 60.7305 52.9663 60.7305V59.7305C52.3461 59.7305 51.8138 59.9558 51.4379 60.4343L52.2242 61.0521ZM52.9663 60.7305C53.2846 60.7305 53.6526 60.8003 54.0752 60.956L54.4209 60.0176C53.9157 59.8315 53.4292 59.7305 52.9663 59.7305V60.7305ZM54.1044 60.9657C54.5488 61.0991 54.9572 61.2871 55.3314 61.5292L55.8747 60.6896C55.4187 60.3946 54.9238 60.1675 54.3917 60.0079L54.1044 60.9657ZM55.3314 61.5292C55.6935 61.7635 55.9868 62.0474 56.2164 62.3814L57.0404 61.8149C56.7329 61.3676 56.3426 60.9924 55.8747 60.6896L55.3314 61.5292ZM56.238 62.4105C56.4651 62.6944 56.5679 62.9886 56.5679 63.3066H57.5679C57.5679 62.7457 57.3776 62.2343 57.0189 61.7858L56.238 62.4105ZM56.5679 63.3066V65.4307H57.5679V63.3066H56.5679ZM56.5679 65.4307C56.5679 67.2084 57.0466 68.7091 58.0402 69.8906L58.8055 69.247C57.9924 68.2801 57.5679 67.0221 57.5679 65.4307H56.5679ZM58.0482 69.8999C59.0927 71.0819 60.5746 71.6436 62.4146 71.6436V70.6436C60.7877 70.6436 59.6084 70.1554 58.7975 69.2377L58.0482 69.8999ZM62.4146 71.6436C63.7141 71.6436 64.861 71.3437 65.8332 70.7226L65.2948 69.8799C64.5092 70.3818 63.5564 70.6436 62.4146 70.6436V71.6436ZM65.8332 70.7226C66.7752 70.1207 67.5374 69.3459 68.1146 68.4014L67.2613 67.8799C66.7644 68.6932 66.1105 69.3588 65.2948 69.8799L65.8332 70.7226ZM68.1093 68.4098C68.7036 67.4797 69.1279 66.449 69.3841 65.3217L68.4089 65.1001C68.1768 66.1213 67.7954 67.0438 67.2666 67.8714L68.1093 68.4098ZM69.3822 65.3297C69.6595 64.1951 69.7993 63.081 69.7993 61.9883H68.7993C68.7993 62.9951 68.6706 64.0295 68.4108 65.0922L69.3822 65.3297ZM69.7993 61.9883C69.7993 59.8657 69.3566 57.8071 68.4747 55.8165L67.5604 56.2216C68.3875 58.0884 68.7993 60.0093 68.7993 61.9883H69.7993ZM68.4768 55.8214C67.6328 53.8603 66.5664 51.9513 65.2791 50.0945L64.4573 50.6643C65.709 52.4696 66.7422 54.3204 67.5583 56.2167L68.4768 55.8214ZM65.2808 50.0971C64.002 48.2279 62.6128 46.3964 61.1137 44.6022L60.3463 45.2435C61.8256 47.0138 63.1953 48.8199 64.4555 50.6617L65.2808 50.0971ZM61.1137 44.6022C59.6314 42.8284 58.2593 41.0677 56.9971 39.32L56.1865 39.9055C57.4633 41.6735 58.85 43.4528 60.3463 45.2435L61.1137 44.6022ZM56.9971 39.32C55.7427 37.5831 54.696 35.85 53.8554 34.1208L52.9561 34.558C53.8245 36.3444 54.9018 38.1268 56.1865 39.9055L56.9971 39.32ZM53.8579 34.1259C53.0573 32.4306 52.6606 30.7088 52.6606 28.9561H51.6606C51.6606 30.8655 52.094 32.7325 52.9536 34.5529L53.8579 34.1259ZM52.6606 28.9561C52.6606 27.5324 52.9404 26.3367 53.4785 25.3503L52.6006 24.8714C51.9668 26.0334 51.6606 27.4012 51.6606 28.9561H52.6606ZM53.4766 25.3537C54.0522 24.3176 54.7956 23.4849 55.7067 22.8471L55.1332 22.0279C54.0911 22.7573 53.2476 23.7068 52.6025 24.868L53.4766 25.3537ZM55.7087 22.8457C56.6573 22.1747 57.7238 21.6869 58.9126 21.3839L58.6656 20.4149C57.364 20.7467 56.1845 21.2843 55.1312 22.0293L55.7087 22.8457ZM58.919 21.3822C60.1453 21.0521 61.4077 20.8867 62.7075 20.8867V19.8867C61.3218 19.8867 59.9719 20.0632 58.6591 20.4166L58.919 21.3822ZM62.7075 20.8867C64.2964 20.8867 65.7027 21.112 66.9333 21.5532L67.2708 20.6118C65.9135 20.1253 64.3901 19.8867 62.7075 19.8867V20.8867ZM66.9333 21.5532C68.1661 21.9951 69.2017 22.6304 70.0493 23.455L70.7466 22.7383C69.7875 21.8052 68.6259 21.0976 67.2708 20.6118L66.9333 21.5532ZM70.0493 23.455C70.8932 24.2762 71.5375 25.2958 71.9781 26.5247L72.9194 26.1872C72.4322 24.8282 71.7093 23.675 70.7466 22.7383L70.0493 23.455ZM71.9821 26.5354C72.4443 27.7374 72.6812 29.1274 72.6812 30.7139H73.6812C73.6812 29.0289 73.4297 27.5136 72.9154 26.1765L71.9821 26.5354ZM72.6812 30.7139C72.6812 30.9429 72.6696 31.2361 72.6456 31.5961L73.6434 31.6627C73.6682 31.2903 73.6812 30.9731 73.6812 30.7139H72.6812ZM72.6456 31.5961C72.6234 31.929 72.5679 32.2632 72.4783 32.5992L73.4445 32.8569C73.5503 32.4604 73.6168 32.0622 73.6434 31.6627L72.6456 31.5961ZM72.4807 32.5907C72.398 32.8801 72.2761 33.1315 72.1176 33.3495L72.9263 33.9376C73.1585 33.6185 73.3296 33.2595 73.4422 32.8654L72.4807 32.5907ZM72.1315 33.3312C72.0408 33.4447 71.9224 33.5098 71.7163 33.5098V34.5098C72.1938 34.5098 72.6125 34.3307 72.9124 33.9559L72.1315 33.3312ZM71.7163 33.5098C71.3144 33.5098 70.9022 33.4099 70.4751 33.1963L70.0279 34.0908C70.5773 34.3655 71.1416 34.5098 71.7163 34.5098V33.5098ZM70.4854 33.2017C70.0835 32.9889 69.7636 32.7936 69.5202 32.6166L68.932 33.4254C69.2257 33.639 69.5894 33.8588 70.0175 34.0854L70.4854 33.2017ZM69.5606 32.6493C69.3478 32.4579 69.1862 32.2635 69.0689 32.0679L68.2114 32.5824C68.387 32.8751 68.6161 33.1447 68.8916 33.3926L69.5606 32.6493ZM69.0791 32.0858C68.9558 31.8597 68.8614 31.6098 68.7977 31.3339L67.8234 31.5587C67.9062 31.9176 68.0316 32.2536 68.2012 32.5646L69.0791 32.0858ZM68.7977 31.3339C68.7306 31.0427 68.6722 30.6736 68.6247 30.2221L67.6302 30.3268C67.6803 30.803 67.7441 31.2151 67.8234 31.5587L68.7977 31.3339ZM68.6227 30.2056C68.4982 29.3094 68.3355 28.494 68.1334 27.7611L67.1694 28.027C67.3578 28.7101 67.5125 29.4817 67.6322 30.3432L68.6227 30.2056ZM68.1334 27.7611C67.9231 26.9989 67.6026 26.3369 67.1629 25.7873L66.382 26.412C66.7235 26.8389 66.989 27.3731 67.1694 28.027L68.1334 27.7611ZM67.1629 25.7873C66.7152 25.2277 66.1325 24.8014 65.4292 24.5039L65.0396 25.4248C65.6058 25.6644 66.0484 25.995 66.382 26.412L67.1629 25.7873ZM65.4292 24.5039C64.7115 24.2002 63.8209 24.0615 62.7808 24.0615V25.0615C63.7426 25.0615 64.4877 25.1914 65.0396 25.4248L65.4292 24.5039ZM62.7808 24.0615C62.038 24.0615 61.318 24.1384 60.6215 24.2932L60.8384 25.2693C61.4603 25.1311 62.1075 25.0615 62.7808 25.0615V24.0615ZM60.6176 24.2941C59.9261 24.4536 59.3042 24.7222 58.7587 25.1041L59.3321 25.9233C59.7631 25.6216 60.2643 25.4018 60.8424 25.2684L60.6176 24.2941ZM58.7488 25.1111C58.2178 25.5024 57.7915 26.0151 57.4669 26.6374L58.3534 27.0999C58.6147 26.5991 58.9453 26.2085 59.342 25.9162L58.7488 25.1111ZM57.4629 26.645C57.1499 27.2711 57.0073 28.0248 57.0073 28.8828H58.0073C58.0073 28.1295 58.1333 27.5404 58.3574 27.0923L57.4629 26.645ZM57.0073 28.8828C57.0073 30.0799 57.2678 31.2926 57.7782 32.5175L58.7013 32.1329C58.2351 31.014 58.0073 29.9318 58.0073 28.8828H57.0073ZM57.7817 32.5256C58.3073 33.727 58.9808 34.9483 59.8 36.1895L60.6346 35.6386C59.8424 34.4384 59.1976 33.2671 58.6978 32.1248L57.7817 32.5256ZM59.8038 36.1952C60.6415 37.4271 61.5765 38.6942 62.6086 39.9966L63.3924 39.3755C62.3737 38.09 61.4532 36.8425 60.6307 35.6329L59.8038 36.1952ZM62.6152 40.0047C63.6634 41.2723 64.7361 42.5888 65.8334 43.9543L66.6129 43.3279C65.5129 41.959 64.4372 40.6388 63.3858 39.3674L62.6152 40.0047ZM65.8334 43.9543C66.925 45.3127 67.9804 46.7199 68.9996 48.1759L69.8188 47.6024C68.7872 46.1287 67.7186 44.7039 66.6129 43.3279L65.8334 43.9543ZM69.0051 48.1837C70.04 49.6037 70.9542 51.0833 71.748 52.6227L72.6368 52.1644C71.8192 50.5788 70.8779 49.0555 69.8133 47.5947L69.0051 48.1837ZM71.7508 52.6281C72.5649 54.1605 73.2111 55.7521 73.6897 57.4034L74.6502 57.125C74.1522 55.4071 73.48 53.7516 72.6339 52.159L71.7508 52.6281ZM73.6922 57.4117C74.1897 59.0228 74.439 60.6942 74.439 62.4277H75.439C75.439 60.5968 75.1755 58.8258 74.6477 57.1166L73.6922 57.4117Z" fill="black" fill-opacity="0.9"/>
</g>
<defs>
<filter id="filter0_d_4_3" x="0" y="0" width="101" height="101" filterUnits="userSpaceOnUse" color-interpolation-filters="sRGB">
<feFlood flood-opacity="0" result="BackgroundImageFix"/>
<feColorMatrix in="SourceAlpha" type="matrix" values="0 0 0 0 0 0 0 0 0 0 0 0 0 0 0 0 0 0 127 0" result="hardAlpha"/>
<feOffset dy="4"/>
<feGaussianBlur stdDeviation="2"/>
<feComposite in2="hardAlpha" operator="out"/>
<feColorMatrix type="matrix" values="0 0 0 0 0 0 0 0 0 0 0 0 0 0 0 0 0 0 0.25 0"/>
<feBlend mode="normal" in2="BackgroundImageFix" result="effect1_dropShadow_4_3"/>
<feBlend mode="normal" in="SourceGraphic" in2="effect1_dropShadow_4_3" result="shape"/>
</filter>
<filter id="filter1_d_4_3" x="18.636" y="9" width="22.7279" height="43" filterUnits="userSpaceOnUse" color-interpolation-filters="sRGB">
<feFlood flood-opacity="0" result="BackgroundImageFix"/>
<feColorMatrix in="SourceAlpha" type="matrix" values="0 0 0 0 0 0 0 0 0 0 0 0 0 0 0 0 0 0 127 0" result="hardAlpha"/>
<feOffset dy="4"/>
<feGaussianBlur stdDeviation="2"/>
<feComposite in2="hardAlpha" operator="out"/>
<feColorMatrix type="matrix" values="0 0 0 0 0 0 0 0 0 0 0 0 0 0 0 0 0 0 0.25 0"/>
<feBlend mode="normal" in2="BackgroundImageFix" result="effect1_dropShadow_4_3"/>
<feBlend mode="normal" in="SourceGraphic" in2="effect1_dropShadow_4_3" result="shape"/>
</filter>
<filter id="filter2_d_4_3" x="24.3926" y="28.5508" width="27.3359" height="44.5723" filterUnits="userSpaceOnUse" color-interpolation-filters="sRGB">
<feFlood flood-opacity="0" result="BackgroundImageFix"/>
<feColorMatrix in="SourceAlpha" type="matrix" values="0 0 0 0 0 0 0 0 0 0 0 0 0 0 0 0 0 0 127 0" result="hardAlpha"/>
<feOffset dy="4"/>
<feGaussianBlur stdDeviation="2"/>
<feComposite in2="hardAlpha" operator="out"/>
<feColorMatrix type="matrix" values="0 0 0 0 0 0 0 0 0 0 0 0 0 0 0 0 0 0 0.25 0"/>
<feBlend mode="normal" in2="BackgroundImageFix" result="effect1_dropShadow_4_3"/>
<feBlend mode="normal" in="SourceGraphic" in2="effect1_dropShadow_4_3" result="shape"/>
</filter>
<filter id="filter3_d_4_3" x="46.9888" y="20.3867" width="31.9502" height="63.3711" filterUnits="userSpaceOnUse" color-interpolation-filters="sRGB">
<feFlood flood-opacity="0" result="BackgroundImageFix"/>
<feColorMatrix in="SourceAlpha" type="matrix" values="0 0 0 0 0 0 0 0 0 0 0 0 0 0 0 0 0 0 127 0" result="hardAlpha"/>
<feOffset dy="4"/>
<feGaussianBlur stdDeviation="2"/>
<feComposite in2="hardAlpha" operator="out"/>
<feColorMatrix type="matrix" values="0 0 0 0 0 0 0 0 0 0 0 0 0 0 0 0 0 0 0.25 0"/>
<feBlend mode="normal" in2="BackgroundImageFix" result="effect1_dropShadow_4_3"/>
<feBlend mode="normal" in="SourceGraphic" in2="effect1_dropShadow_4_3" result="shape"/>
</filter>
</defs>
</svg>
